<svg width="1920" height="1080" viewBox="0 0 1920 1080" fill="none" xmlns="http://www.w3.org/2000/svg">
<rect width="1920" height="1080" fill="white"/>
<path d="M622.5 462L255 0H0V1080H407.5L498.263 1036.2C513.583 1028.8 524.711 1014.85 528.51 998.268L622.5 588V462Z" fill="#FFF500"/>
<path d="M481.094 714.311C465.305 721.896 446.913 721.896 431.124 714.311L329.659 665.566C313.87 657.981 302.402 643.636 298.503 626.593L273.443 517.063C269.544 500.02 273.636 482.132 284.562 468.464L354.779 380.629C365.705 366.961 382.276 359 399.8 359L512.418 359C529.942 359 546.513 366.961 557.439 380.629L627.655 468.464C638.581 482.132 642.674 500.02 638.774 517.064L613.715 626.593C609.815 643.636 598.348 657.981 582.559 665.566L481.094 714.311Z" fill="#0038FF"/>
<path d="M397.129 564.323C406.16 564.323 411.819 559.758 411.819 552.371C411.819 546.065 407.845 542.522 400.922 541.141L394.18 539.82C389.905 538.979 387.196 536.817 387.196 533.033C387.196 528.469 391.29 524.986 397.129 524.986H397.732C403.571 524.986 407.906 528.469 408.267 533.994H412.481C412.18 526.067 406.461 521.082 397.43 521.082C388.46 521.082 382.982 526.487 382.982 533.093C382.982 539.279 386.654 542.702 393.036 544.024L399.778 545.405C405.076 546.486 407.605 548.708 407.605 552.612C407.605 556.936 404.113 560.419 397.671 560.419H397.069C390.026 560.419 385.089 556.876 385.089 550.51H380.875C380.875 559.278 386.895 564.323 397.129 564.323Z" fill="white"/>
<path d="M439.281 564.323C450.358 564.323 458.545 556.215 458.545 542.702C458.545 529.19 450.358 521.082 439.281 521.082C428.203 521.082 420.016 529.19 420.016 542.702C420.016 556.215 428.203 564.323 439.281 564.323ZM438.98 560.419C430.431 560.419 424.23 553.693 424.23 542.702C424.23 531.712 430.431 524.986 438.98 524.986H439.582C448.13 524.986 454.331 531.712 454.331 542.702C454.331 553.693 448.13 560.419 439.582 560.419H438.98Z" fill="white"/>
<path d="M473.057 563.722V545.285H493.766V541.381H473.057V525.586H496.836V521.683H468.842V563.722H473.057Z" fill="white"/>
<path d="M520.185 563.722V525.586H535.537V521.683H500.62V525.586H515.971V563.722H520.185Z" fill="white"/>
<path d="M406.372 630.672L396.92 592.176H390.659L381.328 630.972L371.876 592.176H367.602L378.016 634.215H384.398L393.729 596.56L403 634.215H409.382L419.797 592.176H415.582L406.372 630.672Z" fill="white"/>
<path d="M461.309 634.215L444.151 592.176H438.854L421.576 634.215H425.91L430.606 622.624H452.158L456.854 634.215H461.309ZM441.382 596.019L450.593 618.721H432.171L441.382 596.019Z" fill="white"/>
<path d="M473.094 634.215V616.499H491.455C493.262 616.499 494.165 617.399 494.165 619.201V634.215H498.379V619.201C498.379 615.057 496.813 613.496 492.599 613.496C496.452 611.934 498.981 608.271 498.981 603.406C498.981 596.92 493.502 592.176 486.098 592.176H468.88V634.215H473.094ZM473.094 596.079H485.495C491.275 596.079 494.767 599.022 494.767 604.007C494.767 609.292 490.312 612.595 485.495 612.595H473.094V596.079Z" fill="white"/>
<path d="M540.749 634.215V630.312H514.922V614.517H536.535V610.613H514.922V596.079H540.147V592.176H510.708V634.215H540.749Z" fill="white"/>
<path d="M359.25 437.356C359.25 411.398 380.344 390.355 406.364 390.355H505.828C531.849 390.355 552.943 411.398 552.943 437.356V437.356C552.943 463.314 531.849 484.357 505.828 484.357H406.364C380.344 484.357 359.25 463.314 359.25 437.356V437.356Z" fill="white"/>
<path d="M410.551 458.951C419.582 458.951 425.241 454.387 425.241 447C425.241 440.694 421.267 437.151 414.344 435.77L407.601 434.449C403.327 433.608 400.618 431.446 400.618 427.662C400.618 423.098 404.712 419.615 410.551 419.615H411.153C416.993 419.615 421.327 423.098 421.689 428.623H425.903C425.602 420.696 419.883 415.711 410.852 415.711C401.882 415.711 396.404 421.116 396.404 427.722C396.404 433.908 400.076 437.331 406.458 438.652L413.2 440.034C418.498 441.115 421.026 443.337 421.026 447.241C421.026 451.565 417.535 455.048 411.093 455.048H410.491C403.448 455.048 398.511 451.505 398.511 445.139H394.297C394.297 453.907 400.317 458.951 410.551 458.951Z" fill="#0038FF"/>
<path d="M465.465 458.351V454.447H440.241V416.311H436.027V458.351H465.465Z" fill="#0038FF"/>
<path d="M495.419 455.228L480.61 416.311H473.446V458.351H477.6V419.555L492.409 458.351H498.249L512.938 419.735V458.351H517.092V416.311H510.109L495.419 455.228Z" fill="#0038FF"/>
<path fill-rule="evenodd" clip-rule="evenodd" d="M577.286 603.034C583.816 585.674 587.894 561.559 587.894 534.825C587.894 508.092 583.816 483.977 577.286 466.616C574.019 457.929 570.176 451.034 566.008 446.347C561.838 441.657 557.51 439.349 553.213 439.349L553.213 435.432C559.035 435.432 564.347 438.576 568.945 443.748C573.545 448.921 577.598 456.296 580.962 465.24C587.696 483.144 591.82 507.747 591.82 534.825C591.82 561.904 587.696 586.506 580.962 604.41C577.598 613.355 573.545 620.729 568.945 625.903C564.347 631.074 559.035 634.219 553.213 634.219L553.213 630.302C557.51 630.302 561.838 627.994 566.008 623.304C570.176 618.616 574.019 611.722 577.286 603.034Z" fill="white"/>
<path fill-rule="evenodd" clip-rule="evenodd" d="M334.932 466.618C328.403 483.979 324.325 508.094 324.325 534.827C324.325 561.56 328.403 585.675 334.932 603.036C338.2 611.724 342.043 618.618 346.211 623.305C350.381 627.995 354.709 630.304 359.006 630.304V634.22C353.184 634.22 347.872 631.076 343.274 625.905C338.674 620.731 334.621 613.356 331.256 604.412C324.523 586.508 320.398 561.906 320.398 534.827C320.398 507.748 324.523 483.146 331.256 465.242C334.621 456.297 338.674 448.923 343.274 443.749C347.872 438.578 353.184 435.434 359.006 435.434V439.35C354.709 439.35 350.381 441.659 346.211 446.348C342.043 451.036 338.2 457.93 334.932 466.618Z" fill="white"/>
<path d="M835.99 422.18C835.99 425.96 835.06 429.26 833.2 432.08C831.34 434.9 828.64 437.09 825.1 438.65C821.62 440.15 817.36 440.9 812.32 440.9C810.1 440.9 807.91 440.75 805.75 440.45C803.65 440.15 801.61 439.73 799.63 439.19C797.71 438.59 795.88 437.87 794.14 437.03V424.34C797.2 425.66 800.35 426.89 803.59 428.03C806.89 429.11 810.16 429.65 813.4 429.65C815.62 429.65 817.39 429.35 818.71 428.75C820.09 428.15 821.08 427.34 821.68 426.32C822.34 425.3 822.67 424.13 822.67 422.81C822.67 421.19 822.1 419.81 820.96 418.67C819.88 417.53 818.41 416.48 816.55 415.52C814.69 414.5 812.56 413.42 810.16 412.28C808.66 411.56 807.04 410.72 805.3 409.76C803.56 408.74 801.88 407.51 800.26 406.07C798.7 404.57 797.41 402.77 796.39 400.67C795.37 398.57 794.86 396.05 794.86 393.11C794.86 389.27 795.73 386 797.47 383.3C799.27 380.54 801.79 378.44 805.03 377C808.33 375.56 812.2 374.84 816.64 374.84C820 374.84 823.18 375.23 826.18 376.01C829.24 376.79 832.42 377.9 835.72 379.34L831.31 389.96C828.37 388.76 825.73 387.83 823.39 387.17C821.05 386.51 818.65 386.18 816.19 386.18C814.51 386.18 813.07 386.45 811.87 386.99C810.67 387.53 809.74 388.28 809.08 389.24C808.48 390.2 808.18 391.34 808.18 392.66C808.18 394.16 808.63 395.45 809.53 396.53C810.43 397.55 811.78 398.54 813.58 399.5C815.38 400.46 817.63 401.6 820.33 402.92C823.63 404.48 826.42 406.1 828.7 407.78C831.04 409.46 832.84 411.44 834.1 413.72C835.36 416 835.99 418.82 835.99 422.18ZM874.85 440L859.37 389.6H859.01C859.07 390.8 859.16 392.6 859.28 395C859.4 397.4 859.52 399.98 859.64 402.74C859.76 405.44 859.82 407.9 859.82 410.12V440H847.67V375.74H866.21L881.42 424.88H881.69L897.8 375.74H916.34V440H903.65V409.58C903.65 407.54 903.68 405.2 903.74 402.56C903.86 399.92 903.95 397.43 904.01 395.09C904.13 392.69 904.22 390.89 904.28 389.69H903.92L887.36 440H874.85ZM971.903 440L967.223 424.7H943.823L939.143 440H924.473L947.153 375.47H963.803L986.573 440H971.903ZM959.303 398.33C959.003 397.31 958.613 396.02 958.133 394.46C957.653 392.9 957.173 391.31 956.693 389.69C956.213 388.07 955.823 386.66 955.523 385.46C955.223 386.66 954.803 388.16 954.263 389.96C953.783 391.7 953.303 393.38 952.823 395C952.403 396.56 952.073 397.67 951.833 398.33L947.243 413.27H963.983L959.303 398.33ZM1013.43 375.74C1019.25 375.74 1024.05 376.46 1027.83 377.9C1031.61 379.28 1034.43 381.41 1036.29 384.29C1038.15 387.11 1039.08 390.68 1039.08 395C1039.08 397.94 1038.51 400.52 1037.37 402.74C1036.29 404.9 1034.82 406.76 1032.96 408.32C1031.16 409.82 1029.21 411.05 1027.11 412.01L1046.01 440H1030.89L1015.59 415.34H1008.3V440H994.711V375.74H1013.43ZM1012.44 386.9H1008.3V404.27H1012.71C1015.71 404.27 1018.14 403.94 1020 403.28C1021.86 402.62 1023.21 401.63 1024.05 400.31C1024.89 398.93 1025.31 397.28 1025.31 395.36C1025.31 393.32 1024.83 391.7 1023.87 390.5C1022.97 389.24 1021.56 388.34 1019.64 387.8C1017.78 387.2 1015.38 386.9 1012.44 386.9ZM1078.88 440H1065.29V387.08H1047.83V375.74H1096.34V387.08H1078.88V440ZM798.1 540V475.74H811.69V528.75H837.79V540H798.1ZM888.319 540L883.639 524.7H860.239L855.559 540H840.889L863.569 475.47H880.219L902.989 540H888.319ZM875.719 498.33C875.419 497.31 875.029 496.02 874.549 494.46C874.069 492.9 873.589 491.31 873.109 489.69C872.629 488.07 872.239 486.66 871.939 485.46C871.639 486.66 871.219 488.16 870.679 489.96C870.199 491.7 869.719 493.38 869.239 495C868.819 496.56 868.489 497.67 868.249 498.33L863.659 513.27H880.399L875.719 498.33ZM968.097 540H950.817L922.827 491.4H922.467C922.527 492.9 922.587 494.43 922.647 495.99C922.707 497.49 922.767 499.02 922.827 500.58C922.947 502.08 923.037 503.61 923.097 505.17C923.157 506.67 923.217 508.2 923.277 509.76V540H911.127V475.74H928.317L956.217 523.89H956.487C956.427 522.39 956.367 520.92 956.307 519.48C956.247 517.98 956.187 516.51 956.127 515.07C956.127 513.57 956.097 512.1 956.037 510.66C955.977 509.16 955.917 507.66 955.857 506.16V475.74H968.097V540ZM1008.73 503.91H1034.2V537.21C1030.84 538.35 1027.33 539.25 1023.67 539.91C1020.07 540.57 1015.96 540.9 1011.34 540.9C1004.98 540.9 999.55 539.64 995.05 537.12C990.61 534.6 987.22 530.88 984.88 525.96C982.6 521.04 981.46 514.98 981.46 507.78C981.46 501.06 982.75 495.24 985.33 490.32C987.97 485.4 991.78 481.59 996.76 478.89C1001.74 476.19 1007.83 474.84 1015.03 474.84C1018.45 474.84 1021.81 475.2 1025.11 475.92C1028.41 476.64 1031.41 477.6 1034.11 478.8L1029.61 489.69C1027.63 488.67 1025.38 487.83 1022.86 487.17C1020.34 486.51 1017.7 486.18 1014.94 486.18C1010.98 486.18 1007.53 487.08 1004.59 488.88C1001.71 490.68 999.46 493.23 997.84 496.53C996.28 499.77 995.5 503.61 995.5 508.05C995.5 512.25 996.07 515.97 997.21 519.21C998.35 522.45 1000.15 525 1002.61 526.86C1005.07 528.66 1008.28 529.56 1012.24 529.56C1013.56 529.56 1014.7 529.53 1015.66 529.47C1016.68 529.35 1017.61 529.23 1018.45 529.11C1019.29 528.93 1020.1 528.78 1020.88 528.66V515.25H1008.73V503.91ZM1101.76 517.32C1101.76 521.76 1100.77 525.78 1098.79 529.38C1096.87 532.92 1093.93 535.74 1089.97 537.84C1086.07 539.88 1081.12 540.9 1075.12 540.9C1066.6 540.9 1060.12 538.74 1055.68 534.42C1051.24 530.04 1049.02 524.28 1049.02 517.14V475.74H1062.61V515.07C1062.61 520.35 1063.69 524.07 1065.85 526.23C1068.01 528.39 1071.22 529.47 1075.48 529.47C1078.48 529.47 1080.91 528.96 1082.77 527.94C1084.63 526.92 1085.98 525.33 1086.82 523.17C1087.72 521.01 1088.17 518.28 1088.17 514.98V475.74H1101.76V517.32ZM1155.95 540L1151.27 524.7H1127.87L1123.19 540H1108.52L1131.2 475.47H1147.85L1170.62 540H1155.95ZM1143.35 498.33C1143.05 497.31 1142.66 496.02 1142.18 494.46C1141.7 492.9 1141.22 491.31 1140.74 489.69C1140.26 488.07 1139.87 486.66 1139.57 485.46C1139.27 486.66 1138.85 488.16 1138.31 489.96C1137.83 491.7 1137.35 493.38 1136.87 495C1136.45 496.56 1136.12 497.67 1135.88 498.33L1131.29 513.27H1148.03L1143.35 498.33ZM1201.39 503.91H1226.86V537.21C1223.5 538.35 1219.99 539.25 1216.33 539.91C1212.73 540.57 1208.62 540.9 1204 540.9C1197.64 540.9 1192.21 539.64 1187.71 537.12C1183.27 534.6 1179.88 530.88 1177.54 525.96C1175.26 521.04 1174.12 514.98 1174.12 507.78C1174.12 501.06 1175.41 495.24 1177.99 490.32C1180.63 485.4 1184.44 481.59 1189.42 478.89C1194.4 476.19 1200.49 474.84 1207.69 474.84C1211.11 474.84 1214.47 475.2 1217.77 475.92C1221.07 476.64 1224.07 477.6 1226.77 478.8L1222.27 489.69C1220.29 488.67 1218.04 487.83 1215.52 487.17C1213 486.51 1210.36 486.18 1207.6 486.18C1203.64 486.18 1200.19 487.08 1197.25 488.88C1194.37 490.68 1192.12 493.23 1190.5 496.53C1188.94 499.77 1188.16 503.61 1188.16 508.05C1188.16 512.25 1188.73 515.97 1189.87 519.21C1191.01 522.45 1192.81 525 1195.27 526.86C1197.73 528.66 1200.94 529.56 1204.9 529.56C1206.22 529.56 1207.36 529.53 1208.32 529.47C1209.34 529.35 1210.27 529.23 1211.11 529.11C1211.95 528.93 1212.76 528.78 1213.54 528.66V515.25H1201.39V503.91ZM1279.11 540H1242.12V475.74H1279.11V486.9H1255.71V501.03H1277.49V512.19H1255.71V528.75H1279.11V540ZM825.28 640L809.8 589.6H809.44C809.5 590.8 809.59 592.6 809.71 595C809.83 597.4 809.95 599.98 810.07 602.74C810.19 605.44 810.25 607.9 810.25 610.12V640H798.1V575.74H816.64L831.85 624.88H832.12L848.23 575.74H866.77V640H854.08V609.58C854.08 607.54 854.11 605.2 854.17 602.56C854.29 599.92 854.38 597.43 854.44 595.09C854.56 592.69 854.65 590.89 854.71 589.69H854.35L837.79 640H825.28ZM941.322 607.78C941.322 612.76 940.692 617.29 939.432 621.37C938.232 625.39 936.372 628.87 933.852 631.81C931.392 634.75 928.212 637 924.312 638.56C920.472 640.12 915.942 640.9 910.722 640.9C905.502 640.9 900.942 640.12 897.042 638.56C893.202 636.94 890.022 634.69 887.502 631.81C885.042 628.87 883.182 625.36 881.922 621.28C880.722 617.2 880.122 612.67 880.122 607.69C880.122 601.03 881.202 595.24 883.362 590.32C885.582 585.4 888.942 581.59 893.442 578.89C898.002 576.13 903.792 574.75 910.812 574.75C917.772 574.75 923.502 576.13 928.002 578.89C932.502 581.59 935.832 585.43 937.992 590.41C940.212 595.33 941.322 601.12 941.322 607.78ZM894.432 607.78C894.432 612.28 895.002 616.15 896.142 619.39C897.282 622.63 899.052 625.12 901.452 626.86C903.852 628.6 906.942 629.47 910.722 629.47C914.622 629.47 917.742 628.6 920.082 626.86C922.482 625.12 924.222 622.63 925.302 619.39C926.442 616.15 927.012 612.28 927.012 607.78C927.012 601 925.752 595.69 923.232 591.85C920.712 588.01 916.572 586.09 910.812 586.09C906.972 586.09 903.852 586.96 901.452 588.7C899.052 590.44 897.282 592.93 896.142 596.17C895.002 599.41 894.432 603.28 894.432 607.78ZM1007.91 607.24C1007.91 614.44 1006.53 620.47 1003.77 625.33C1001.01 630.19 996.993 633.85 991.713 636.31C986.493 638.77 980.193 640 972.813 640H954.633V575.74H974.793C981.513 575.74 987.333 576.94 992.253 579.34C997.233 581.74 1001.07 585.28 1003.77 589.96C1006.53 594.58 1007.91 600.34 1007.91 607.24ZM993.783 607.6C993.783 602.86 993.093 598.96 991.713 595.9C990.333 592.84 988.263 590.59 985.503 589.15C982.803 587.65 979.473 586.9 975.513 586.9H968.223V628.75H974.073C980.733 628.75 985.683 626.98 988.923 623.44C992.163 619.9 993.783 614.62 993.783 607.6ZM1058.24 640H1021.25V575.74H1058.24V586.9H1034.84V601.03H1056.62V612.19H1034.84V628.75H1058.24V640ZM1071.62 640V575.74H1085.21V628.75H1111.31V640H1071.62ZM1160.39 622.18C1160.39 625.96 1159.46 629.26 1157.6 632.08C1155.74 634.9 1153.04 637.09 1149.5 638.65C1146.02 640.15 1141.76 640.9 1136.72 640.9C1134.5 640.9 1132.31 640.75 1130.15 640.45C1128.05 640.15 1126.01 639.73 1124.03 639.19C1122.11 638.59 1120.28 637.87 1118.54 637.03V624.34C1121.6 625.66 1124.75 626.89 1127.99 628.03C1131.29 629.11 1134.56 629.65 1137.8 629.65C1140.02 629.65 1141.79 629.35 1143.11 628.75C1144.49 628.15 1145.48 627.34 1146.08 626.32C1146.74 625.3 1147.07 624.13 1147.07 622.81C1147.07 621.19 1146.5 619.81 1145.36 618.67C1144.28 617.53 1142.81 616.48 1140.95 615.52C1139.09 614.5 1136.96 613.42 1134.56 612.28C1133.06 611.56 1131.44 610.72 1129.7 609.76C1127.96 608.74 1126.28 607.51 1124.66 606.07C1123.1 604.57 1121.81 602.77 1120.79 600.67C1119.77 598.57 1119.26 596.05 1119.26 593.11C1119.26 589.27 1120.13 586 1121.87 583.3C1123.67 580.54 1126.19 578.44 1129.43 577C1132.73 575.56 1136.6 574.84 1141.04 574.84C1144.4 574.84 1147.58 575.23 1150.58 576.01C1153.64 576.79 1156.82 577.9 1160.12 579.34L1155.71 589.96C1152.77 588.76 1150.13 587.83 1147.79 587.17C1145.45 586.51 1143.05 586.18 1140.59 586.18C1138.91 586.18 1137.47 586.45 1136.27 586.99C1135.07 587.53 1134.14 588.28 1133.48 589.24C1132.88 590.2 1132.58 591.34 1132.58 592.66C1132.58 594.16 1133.03 595.45 1133.93 596.53C1134.83 597.55 1136.18 598.54 1137.98 599.5C1139.78 600.46 1142.03 601.6 1144.73 602.92C1148.03 604.48 1150.82 606.1 1153.1 607.78C1155.44 609.46 1157.24 611.44 1158.5 613.72C1159.76 616 1160.39 618.82 1160.39 622.18Z" fill="black"/>
</svg>
