<svg width="1920" height="1080" viewBox="0 0 1920 1080" fill="none" xmlns="http://www.w3.org/2000/svg">
<rect width="1920" height="1080" fill="black"/>
<path d="M485.459 769.515C464.734 779.495 440.593 779.495 419.868 769.515L286.684 705.376C265.959 695.396 250.907 676.521 245.789 654.095L212.895 509.978C207.776 487.552 213.148 464.016 227.49 446.032L319.657 330.459C333.998 312.475 355.749 302 378.752 302L526.575 302C549.578 302 571.329 312.475 585.671 330.459L677.837 446.032C692.179 464.016 697.551 487.552 692.432 509.978L659.539 654.095C654.42 676.521 639.368 695.396 618.643 705.376L485.459 769.515Z" fill="white"/>
<path d="M375.265 572.165C387.119 572.165 394.547 566.159 394.547 556.44C394.547 548.142 389.331 543.48 380.244 541.663L371.393 539.924C365.783 538.818 362.227 535.973 362.227 530.995C362.227 524.989 367.6 520.406 375.265 520.406H376.056C383.721 520.406 389.41 524.989 389.884 532.259H395.416C395.021 521.828 387.514 515.27 375.661 515.27C363.886 515.27 356.695 522.381 356.695 531.074C356.695 539.213 361.516 543.717 369.892 545.456L378.742 547.273C385.696 548.696 389.015 551.619 389.015 556.756C389.015 562.445 384.432 567.029 375.977 567.029H375.186C365.941 567.029 359.461 562.366 359.461 553.99H353.93C353.93 565.527 361.832 572.165 375.265 572.165Z" fill="black"/>
<path d="M430.593 572.165C445.133 572.165 455.88 561.497 455.88 543.717C455.88 525.937 445.133 515.27 430.593 515.27C416.054 515.27 405.307 525.937 405.307 543.717C405.307 561.497 416.054 572.165 430.593 572.165ZM430.198 567.029C418.977 567.029 410.838 558.178 410.838 543.717C410.838 529.256 418.977 520.406 430.198 520.406H430.989C442.21 520.406 450.349 529.256 450.349 543.717C450.349 558.178 442.21 567.029 430.989 567.029H430.198Z" fill="black"/>
<path d="M474.928 571.375V547.115H502.112V541.979H474.928V521.196H506.142V516.06H469.397V571.375H474.928Z" fill="black"/>
<path d="M536.79 571.375V521.196H556.94V516.06H511.108V521.196H531.258V571.375H536.79Z" fill="black"/>
<path d="M387.39 659.473L374.983 608.82H366.765L354.517 659.868L342.111 608.82H336.5L350.171 664.135H358.547L370.795 614.589L382.965 664.135H391.341L405.012 608.82H399.48L387.39 659.473Z" fill="black"/>
<path d="M459.501 664.135L436.98 608.82H430.026L407.347 664.135H413.037L419.2 648.884H447.49L453.654 664.135H459.501ZM433.345 613.878L445.435 643.748H421.255L433.345 613.878Z" fill="black"/>
<path d="M474.97 664.135V640.824H499.072C501.443 640.824 502.628 642.009 502.628 644.38V664.135H508.159V644.38C508.159 638.928 506.105 636.873 500.573 636.873C505.631 634.818 508.95 629.998 508.95 623.597C508.95 615.063 501.759 608.82 492.039 608.82H469.439V664.135H474.97ZM474.97 613.957H491.249C498.835 613.957 503.418 617.829 503.418 624.388C503.418 631.341 497.57 635.688 491.249 635.688H474.97V613.957Z" fill="black"/>
<path d="M563.775 664.135V658.999H529.875V638.216H558.244V633.08H529.875V613.957H562.985V608.82H524.343V664.135H563.775Z" fill="black"/>
<path d="M325.547 405.081C325.547 370.926 353.235 343.238 387.39 343.238H517.947C552.102 343.238 579.79 370.926 579.79 405.081V405.081C579.79 439.236 552.102 466.924 517.947 466.924H387.39C353.235 466.924 325.547 439.236 325.547 405.081V405.081Z" fill="black"/>
<path d="M392.867 433.501C404.72 433.501 412.148 427.495 412.148 417.776C412.148 409.478 406.933 404.816 397.845 402.999L388.995 401.26C383.384 400.154 379.829 397.309 379.829 392.331C379.829 386.325 385.202 381.742 392.867 381.742H393.657C401.322 381.742 407.012 386.325 407.486 393.595H413.018C412.622 383.164 405.115 376.605 393.262 376.605C381.488 376.605 374.297 383.717 374.297 392.41C374.297 400.549 379.117 405.053 387.494 406.792L396.344 408.609C403.298 410.032 406.617 412.955 406.617 418.092C406.617 423.781 402.034 428.365 393.578 428.365H392.788C383.543 428.365 377.063 423.702 377.063 415.326H371.531C371.531 426.863 379.433 433.501 392.867 433.501Z" fill="white"/>
<path d="M464.948 432.711V427.574H431.838V377.396H426.306V432.711H464.948Z" fill="white"/>
<path d="M504.266 428.602L484.826 377.396H475.423V432.711H480.875V381.663L500.315 432.711H507.98L527.261 381.9V432.711H532.713V377.396H523.547L504.266 428.602Z" fill="white"/>
<path fill-rule="evenodd" clip-rule="evenodd" d="M611.719 623.101C620.29 600.258 625.643 568.527 625.643 533.352C625.643 498.177 620.29 466.446 611.719 443.603C607.431 432.172 602.386 423.101 596.915 416.933C591.442 410.762 585.76 407.725 580.12 407.725L580.12 402.571C587.762 402.571 594.735 406.709 600.77 413.513C606.809 420.32 612.129 430.024 616.545 441.793C625.383 465.351 630.797 497.722 630.797 533.352C630.797 568.982 625.383 601.354 616.544 624.911C612.129 636.68 606.809 646.384 600.77 653.191C594.735 659.995 587.762 664.133 580.12 664.133L580.12 658.979C585.76 658.979 591.442 655.942 596.915 649.771C602.386 643.604 607.431 634.532 611.719 623.101Z" fill="black"/>
<path fill-rule="evenodd" clip-rule="evenodd" d="M293.609 443.598C285.038 466.442 279.685 498.172 279.685 533.347C279.685 568.522 285.038 600.253 293.609 623.096C297.898 634.527 302.942 643.599 308.413 649.766C313.887 655.937 319.568 658.974 325.208 658.974L325.208 664.128C317.566 664.128 310.593 659.99 304.558 653.186C298.519 646.379 293.199 636.675 288.784 624.906C279.945 601.349 274.531 568.977 274.531 533.347C274.531 497.717 279.945 465.346 288.784 441.788C293.199 430.019 298.519 420.315 304.558 413.508C310.593 406.704 317.566 402.566 325.208 402.566V407.72C319.568 407.72 313.887 410.757 308.413 416.928C302.942 423.096 297.898 432.167 293.609 443.598Z" fill="black"/>
<path d="M837.168 400.767C830.368 400.767 824.293 399.589 818.944 397.231C813.595 394.783 809.379 391.111 806.296 386.215C803.213 381.229 801.672 374.927 801.672 367.311V364.727H810.376V367.311C810.376 376.106 812.869 382.634 817.856 386.895C822.933 391.066 829.371 393.151 837.168 393.151C845.056 393.151 851.131 391.338 855.392 387.711C859.653 383.994 861.784 379.279 861.784 373.567C861.784 369.759 860.832 366.722 858.928 364.455C857.115 362.098 854.531 360.239 851.176 358.879C847.912 357.429 844.104 356.159 839.752 355.071L831.048 352.895C825.88 351.535 821.256 349.858 817.176 347.863C813.096 345.778 809.877 343.103 807.52 339.839C805.163 336.485 803.984 332.223 803.984 327.055C803.984 321.887 805.299 317.399 807.928 313.591C810.648 309.783 814.365 306.882 819.08 304.887C823.795 302.802 829.28 301.759 835.536 301.759C841.792 301.759 847.413 302.847 852.4 305.023C857.477 307.199 861.467 310.418 864.368 314.679C867.36 318.85 868.856 324.109 868.856 330.455V336.847H860.152V330.455C860.152 325.469 859.064 321.434 856.888 318.351C854.712 315.269 851.765 313.002 848.048 311.551C844.331 310.101 840.16 309.375 835.536 309.375C828.917 309.375 823.432 310.917 819.08 313.999C814.819 316.991 812.688 321.343 812.688 327.055C812.688 330.863 813.549 333.901 815.272 336.167C817.085 338.434 819.579 340.247 822.752 341.607C826.016 342.967 829.824 344.191 834.176 345.279L842.88 347.455C847.867 348.634 852.445 350.221 856.616 352.215C860.787 354.119 864.141 356.794 866.68 360.239C869.219 363.594 870.488 368.037 870.488 373.567C870.488 379.098 869.083 383.903 866.272 387.983C863.552 392.063 859.699 395.237 854.712 397.503C849.725 399.679 843.877 400.767 837.168 400.767ZM889.829 398.863V303.663H906.829L935.661 393.695H937.293L966.125 303.663H983.125V398.863H974.693V308.831H973.061L944.229 398.863H928.725L899.893 308.831H898.261V398.863H889.829ZM998.683 398.863L1029.83 303.663H1045.33L1076.48 398.863H1067.36L1059.2 373.567H1015.96L1007.8 398.863H998.683ZM1018.4 365.679H1056.76L1038.4 308.831H1036.76L1018.4 365.679ZM1091.97 398.863V303.663H1129.23C1135.13 303.663 1140.29 304.661 1144.74 306.655C1149.27 308.65 1152.81 311.551 1155.35 315.359C1157.97 319.077 1159.29 323.61 1159.29 328.959V330.319C1159.29 336.757 1157.75 341.834 1154.67 345.551C1151.58 349.178 1147.96 351.581 1143.79 352.759V354.391C1146.96 354.482 1149.63 355.479 1151.81 357.383C1153.99 359.287 1155.07 362.325 1155.07 366.495V398.863H1146.37V367.447C1146.37 364.546 1145.55 362.325 1143.92 360.783C1142.38 359.242 1140.02 358.471 1136.85 358.471H1100.67V398.863H1091.97ZM1100.67 350.583H1128.42C1135.49 350.583 1140.93 348.951 1144.74 345.687C1148.64 342.333 1150.59 337.573 1150.59 331.407V330.727C1150.59 324.562 1148.68 319.847 1144.87 316.583C1141.16 313.229 1135.67 311.551 1128.42 311.551H1100.67V350.583ZM1200.37 398.863V311.551H1168.55V303.663H1240.9V311.551H1209.08V398.863H1200.37ZM806.024 586.863V491.663H814.728V578.975H864.776V586.863H806.024ZM872.511 586.863L903.655 491.663H919.159L950.303 586.863H941.191L933.031 561.567H889.783L881.623 586.863H872.511ZM892.231 553.679H930.583L912.223 496.831H910.591L892.231 553.679ZM965.798 586.863V491.663H983.07L1021.97 581.695H1023.6V491.663H1032.3V586.863H1015.03L976.134 496.695H974.502V586.863H965.798ZM1088.9 588.767C1081.64 588.767 1075.3 587.317 1069.86 584.415C1064.42 581.423 1060.2 577.071 1057.21 571.359C1054.22 565.557 1052.72 558.439 1052.72 550.007V528.519C1052.72 515.826 1056.03 506.215 1062.65 499.687C1069.36 493.069 1078.29 489.759 1089.44 489.759C1100.5 489.759 1108.84 492.842 1114.46 499.007C1120.18 505.173 1123.03 513.378 1123.03 523.623V524.303H1114.33V523.351C1114.33 518.365 1113.47 513.967 1111.74 510.159C1110.02 506.261 1107.3 503.223 1103.58 501.047C1099.96 498.781 1095.24 497.647 1089.44 497.647C1080.64 497.647 1073.75 500.322 1068.77 505.671C1063.87 511.021 1061.42 518.546 1061.42 528.247V550.279C1061.42 559.981 1063.87 567.506 1068.77 572.855C1073.75 578.205 1080.64 580.879 1089.44 580.879C1098.05 580.879 1104.4 578.386 1108.48 573.399C1112.56 568.413 1114.6 561.703 1114.6 553.271V550.551H1083.18V542.935H1123.03V586.863H1115.14V576.119H1113.51C1112.42 578.295 1110.88 580.381 1108.89 582.375C1106.89 584.279 1104.26 585.821 1101 586.999C1097.83 588.178 1093.79 588.767 1088.9 588.767ZM1178.82 588.767C1172.02 588.767 1166.03 587.589 1160.86 585.231C1155.79 582.783 1151.8 579.111 1148.9 574.215C1145.99 569.319 1144.54 563.154 1144.54 555.719V491.663H1153.25V555.719C1153.25 564.242 1155.47 570.589 1159.91 574.759C1164.45 578.839 1170.75 580.879 1178.82 580.879C1186.89 580.879 1193.14 578.839 1197.58 574.759C1202.12 570.589 1204.38 564.242 1204.38 555.719V491.663H1213.09V555.719C1213.09 563.154 1211.64 569.319 1208.74 574.215C1205.93 579.111 1201.94 582.783 1196.77 585.231C1191.6 587.589 1185.62 588.767 1178.82 588.767ZM1225.79 586.863L1256.94 491.663H1272.44L1303.58 586.863H1294.47L1286.31 561.567H1243.06L1234.9 586.863H1225.79ZM1245.51 553.679H1283.86L1265.5 496.831H1263.87L1245.51 553.679ZM1350.8 588.767C1343.55 588.767 1337.2 587.317 1331.76 584.415C1326.32 581.423 1322.11 577.071 1319.11 571.359C1316.12 565.557 1314.63 558.439 1314.63 550.007V528.519C1314.63 515.826 1317.94 506.215 1324.55 499.687C1331.26 493.069 1340.19 489.759 1351.35 489.759C1362.41 489.759 1370.75 492.842 1376.37 499.007C1382.08 505.173 1384.94 513.378 1384.94 523.623V524.303H1376.23V523.351C1376.23 518.365 1375.37 513.967 1373.65 510.159C1371.93 506.261 1369.21 503.223 1365.49 501.047C1361.86 498.781 1357.15 497.647 1351.35 497.647C1342.55 497.647 1335.66 500.322 1330.67 505.671C1325.78 511.021 1323.33 518.546 1323.33 528.247V550.279C1323.33 559.981 1325.78 567.506 1330.67 572.855C1335.66 578.205 1342.55 580.879 1351.35 580.879C1359.96 580.879 1366.31 578.386 1370.39 573.399C1374.47 568.413 1376.51 561.703 1376.51 553.271V550.551H1345.09V542.935H1384.94V586.863H1377.05V576.119H1375.42C1374.33 578.295 1372.79 580.381 1370.79 582.375C1368.8 584.279 1366.17 585.821 1362.91 586.999C1359.73 588.178 1355.7 588.767 1350.8 588.767ZM1407.27 586.863V491.663H1464.79V499.551H1415.97V535.183H1460.99V543.071H1415.97V578.975H1465.34V586.863H1407.27ZM806.024 774.863V679.663H823.024L851.856 769.695H853.488L882.32 679.663H899.32V774.863H890.888V684.831H889.256L860.424 774.863H844.92L816.088 684.831H814.456V774.863H806.024ZM956.358 776.767C945.206 776.767 936.321 773.503 929.702 766.975C923.084 760.357 919.774 750.701 919.774 738.007V716.519C919.774 703.826 923.084 694.215 929.702 687.687C936.321 681.069 945.206 677.759 956.358 677.759C967.51 677.759 976.396 681.069 983.014 687.687C989.633 694.215 992.942 703.826 992.942 716.519V738.007C992.942 750.701 989.633 760.357 983.014 766.975C976.396 773.503 967.51 776.767 956.358 776.767ZM956.358 768.879C965.244 768.879 972.089 766.205 976.894 760.855C981.79 755.506 984.238 747.981 984.238 738.279V716.247C984.238 706.546 981.79 699.021 976.894 693.671C972.089 688.322 965.244 685.647 956.358 685.647C947.564 685.647 940.718 688.322 935.822 693.671C930.926 699.021 928.478 706.546 928.478 716.247V738.279C928.478 747.981 930.926 755.506 935.822 760.855C940.718 766.205 947.564 768.879 956.358 768.879ZM1004.59 774.863V766.975H1018.19V687.551H1004.59V679.663H1040.77C1053.19 679.663 1062.84 682.837 1069.73 689.183C1076.72 695.439 1080.21 705.231 1080.21 718.559V736.103C1080.21 749.431 1076.72 759.223 1069.73 765.479C1062.84 771.735 1053.19 774.863 1040.77 774.863H1004.59ZM1026.89 766.975H1040.77C1050.74 766.975 1058.36 764.573 1063.61 759.767C1068.87 754.962 1071.5 747.21 1071.5 736.511V718.151C1071.5 707.362 1068.87 699.61 1063.61 694.895C1058.36 690.09 1050.74 687.687 1040.77 687.687H1026.89V766.975ZM1099.81 774.863V679.663H1157.33V687.551H1108.51V723.183H1153.53V731.071H1108.51V766.975H1157.88V774.863H1099.81ZM1176.97 774.863V679.663H1185.67V766.975H1235.72V774.863H1176.97ZM1282.49 776.767C1275.69 776.767 1269.61 775.589 1264.26 773.231C1258.92 770.783 1254.7 767.111 1251.62 762.215C1248.53 757.229 1246.99 750.927 1246.99 743.311V740.727H1255.7V743.311C1255.7 752.106 1258.19 758.634 1263.18 762.895C1268.25 767.066 1274.69 769.151 1282.49 769.151C1290.38 769.151 1296.45 767.338 1300.71 763.711C1304.97 759.994 1307.1 755.279 1307.1 749.567C1307.1 745.759 1306.15 742.722 1304.25 740.455C1302.44 738.098 1299.85 736.239 1296.5 734.879C1293.23 733.429 1289.42 732.159 1285.07 731.071L1276.37 728.895C1271.2 727.535 1266.58 725.858 1262.5 723.863C1258.42 721.778 1255.2 719.103 1252.84 715.839C1250.48 712.485 1249.3 708.223 1249.3 703.055C1249.3 697.887 1250.62 693.399 1253.25 689.591C1255.97 685.783 1259.69 682.882 1264.4 680.887C1269.12 678.802 1274.6 677.759 1280.86 677.759C1287.11 677.759 1292.73 678.847 1297.72 681.023C1302.8 683.199 1306.79 686.418 1309.69 690.679C1312.68 694.85 1314.18 700.109 1314.18 706.455V712.847H1305.47V706.455C1305.47 701.469 1304.38 697.434 1302.21 694.351C1300.03 691.269 1297.09 689.002 1293.37 687.551C1289.65 686.101 1285.48 685.375 1280.86 685.375C1274.24 685.375 1268.75 686.917 1264.4 689.999C1260.14 692.991 1258.01 697.343 1258.01 703.055C1258.01 706.863 1258.87 709.901 1260.59 712.167C1262.41 714.434 1264.9 716.247 1268.07 717.607C1271.34 718.967 1275.14 720.191 1279.5 721.279L1288.2 723.455C1293.19 724.634 1297.77 726.221 1301.94 728.215C1306.11 730.119 1309.46 732.794 1312 736.239C1314.54 739.594 1315.81 744.037 1315.81 749.567C1315.81 755.098 1314.4 759.903 1311.59 763.983C1308.87 768.063 1305.02 771.237 1300.03 773.503C1295.05 775.679 1289.2 776.767 1282.49 776.767Z" fill="white"/>
</svg>
